name rise30.9205peak61.366fall85.3838.mot
datacolumns 19
datarows 33
range 11.70328700000000 11.75662000000000
endheader
time	ground_force1_vx	ground_force1_vy	ground_force1_vz	ground_force1_px	ground_force1_py	ground_force1_pz	ground_force2_vx	ground_force2_vy	ground_force2_vz	ground_force2_px	ground_force2_py	ground_force2_pz	ground_torque1_x	ground_torque1_y	ground_torque1_z	ground_torque2_x	ground_torque2_y	ground_torque2_z	
11.70328700000000	6.01341200000000	679.56832499999996	36.82898400000000	0.23670600000000	0.00000000000000	0.11352400000000	0.00000000000000	0.00000000000000	0.00000000000000	0.00000000000000	0.00000000000000	0.00000000000000	0.00000000000000	15.52821600000000	0.00000000000000	0.00000000000000	0.00000000000000	0.00000000000000	
11.70496000000000	5.63578200000000	679.94997300000000	36.83336400000000	0.23615800000000	0.00000000000000	0.11345400000000	0.00000000000000	0.00000000000000	0.00000000000000	0.00000000000000	0.00000000000000	0.00000000000000	0.00000000000000	15.62245900000000	0.00000000000000	0.00000000000000	0.00000000000000	0.00000000000000	
11.70662900000000	5.24866500000000	680.39083100000005	36.84197000000000	0.23559000000000	0.00000000000000	0.11338600000000	0.00000000000000	0.00000000000000	0.00000000000000	0.00000000000000	0.00000000000000	0.00000000000000	0.00000000000000	15.72124200000000	0.00000000000000	0.00000000000000	0.00000000000000	0.00000000000000	
11.70828900000000	4.85164700000000	680.89113899999995	36.85484600000000	0.23500300000000	0.00000000000000	0.11331900000000	0.00000000000000	0.00000000000000	0.00000000000000	0.00000000000000	0.00000000000000	0.00000000000000	0.00000000000000	15.82452100000000	0.00000000000000	0.00000000000000	0.00000000000000	0.00000000000000	
11.70995500000000	4.44435100000000	681.45118200000002	36.87204300000000	0.23439400000000	0.00000000000000	0.11325400000000	0.00000000000000	0.00000000000000	0.00000000000000	0.00000000000000	0.00000000000000	0.00000000000000	0.00000000000000	15.93225500000000	0.00000000000000	0.00000000000000	0.00000000000000	0.00000000000000	
11.71162900000000	4.02643700000000	682.07128799999998	36.89361900000000	0.23376000000000	0.00000000000000	0.11319000000000	0.00000000000000	0.00000000000000	0.00000000000000	0.00000000000000	0.00000000000000	0.00000000000000	0.00000000000000	16.04440100000000	0.00000000000000	0.00000000000000	0.00000000000000	0.00000000000000	
11.71329100000000	3.59760600000000	682.75182700000005	36.91964400000000	0.23310200000000	0.00000000000000	0.11312700000000	0.00000000000000	0.00000000000000	0.00000000000000	0.00000000000000	0.00000000000000	0.00000000000000	0.00000000000000	16.16091900000000	0.00000000000000	0.00000000000000	0.00000000000000	0.00000000000000	
11.71495600000000	3.15759600000000	683.49320699999998	36.95019200000000	0.23241800000000	0.00000000000000	0.11306600000000	0.00000000000000	0.00000000000000	0.00000000000000	0.00000000000000	0.00000000000000	0.00000000000000	0.00000000000000	16.28176700000000	0.00000000000000	0.00000000000000	0.00000000000000	0.00000000000000	
11.71663600000000	2.70619000000000	684.29587300000003	36.98534600000000	0.23170700000000	0.00000000000000	0.11300700000000	0.00000000000000	0.00000000000000	0.00000000000000	0.00000000000000	0.00000000000000	0.00000000000000	0.00000000000000	16.40690600000000	0.00000000000000	0.00000000000000	0.00000000000000	0.00000000000000	
11.71828900000000	2.24320900000000	685.16030200000000	37.02519300000000	0.23096800000000	0.00000000000000	0.11295000000000	0.00000000000000	0.00000000000000	0.00000000000000	0.00000000000000	0.00000000000000	0.00000000000000	0.00000000000000	16.53629300000000	0.00000000000000	0.00000000000000	0.00000000000000	0.00000000000000	
11.71995400000000	1.76851700000000	686.08699700000000	37.06982900000000	0.23020000000000	0.00000000000000	0.11289400000000	0.00000000000000	0.00000000000000	0.00000000000000	0.00000000000000	0.00000000000000	0.00000000000000	0.00000000000000	16.66988700000000	0.00000000000000	0.00000000000000	0.00000000000000	0.00000000000000	
11.72163100000000	1.28202100000000	687.07648500000005	37.11935300000000	0.22940300000000	0.00000000000000	0.11284000000000	0.00000000000000	0.00000000000000	0.00000000000000	0.00000000000000	0.00000000000000	0.00000000000000	0.00000000000000	16.80764400000000	0.00000000000000	0.00000000000000	0.00000000000000	0.00000000000000	
11.72328600000000	0.78367000000000	688.12931100000003	37.17387100000000	0.22857700000000	0.00000000000000	0.11278800000000	0.00000000000000	0.00000000000000	0.00000000000000	0.00000000000000	0.00000000000000	0.00000000000000	0.00000000000000	16.94952100000000	0.00000000000000	0.00000000000000	0.00000000000000	0.00000000000000	
11.72495500000000	0.27345500000000	689.24603100000002	37.23349300000000	0.22772100000000	0.00000000000000	0.11273800000000	0.00000000000000	0.00000000000000	0.00000000000000	0.00000000000000	0.00000000000000	0.00000000000000	0.00000000000000	17.09547000000000	0.00000000000000	0.00000000000000	0.00000000000000	0.00000000000000	
11.72663400000000	-0.24859200000000	690.42720399999996	37.29833300000000	0.22683700000000	0.00000000000000	0.11269000000000	0.00000000000000	0.00000000000000	0.00000000000000	0.00000000000000	0.00000000000000	0.00000000000000	0.00000000000000	17.24544300000000	0.00000000000000	0.00000000000000	0.00000000000000	0.00000000000000	
11.72828700000000	-0.78239600000000	691.67338900000004	37.36851000000000	0.22592400000000	0.00000000000000	0.11264300000000	0.00000000000000	0.00000000000000	0.00000000000000	0.00000000000000	0.00000000000000	0.00000000000000	0.00000000000000	17.39939000000000	0.00000000000000	0.00000000000000	0.00000000000000	0.00000000000000	
11.72995300000000	-1.32784100000000	692.98513600000001	37.44414600000000	0.22498300000000	0.00000000000000	0.11259900000000	0.00000000000000	0.00000000000000	0.00000000000000	0.00000000000000	0.00000000000000	0.00000000000000	0.00000000000000	17.55725500000000	0.00000000000000	0.00000000000000	0.00000000000000	0.00000000000000	
11.73166100000000	-1.88477300000000	694.36297600000000	37.52536900000000	0.22401500000000	0.00000000000000	0.11255600000000	0.00000000000000	0.00000000000000	0.00000000000000	0.00000000000000	0.00000000000000	0.00000000000000	0.00000000000000	17.71898300000000	0.00000000000000	0.00000000000000	0.00000000000000	0.00000000000000	
11.73329900000000	-2.45299600000000	695.80741499999999	37.61230800000000	0.22302100000000	0.00000000000000	0.11251500000000	0.00000000000000	0.00000000000000	0.00000000000000	0.00000000000000	0.00000000000000	0.00000000000000	0.00000000000000	17.88451300000000	0.00000000000000	0.00000000000000	0.00000000000000	0.00000000000000	
11.73495800000000	-3.03227900000000	697.31892600000003	37.70509800000000	0.22200100000000	0.00000000000000	0.11247600000000	0.00000000000000	0.00000000000000	0.00000000000000	0.00000000000000	0.00000000000000	0.00000000000000	0.00000000000000	18.05378100000000	0.00000000000000	0.00000000000000	0.00000000000000	0.00000000000000	
11.73663100000000	-3.62235100000000	698.89793899999995	37.80387600000000	0.22095800000000	0.00000000000000	0.11243900000000	0.00000000000000	0.00000000000000	0.00000000000000	0.00000000000000	0.00000000000000	0.00000000000000	0.00000000000000	18.22671900000000	0.00000000000000	0.00000000000000	0.00000000000000	0.00000000000000	
11.73829300000000	-4.22291000000000	700.54483200000004	37.90878400000000	0.21989100000000	0.00000000000000	0.11240300000000	0.00000000000000	0.00000000000000	0.00000000000000	0.00000000000000	0.00000000000000	0.00000000000000	0.00000000000000	18.40325500000000	0.00000000000000	0.00000000000000	0.00000000000000	0.00000000000000	
11.73995800000000	-4.83361600000000	702.25992199999996	38.01996700000000	0.21880400000000	0.00000000000000	0.11236900000000	0.00000000000000	0.00000000000000	0.00000000000000	0.00000000000000	0.00000000000000	0.00000000000000	0.00000000000000	18.58331100000000	0.00000000000000	0.00000000000000	0.00000000000000	0.00000000000000	
11.74163900000000	-5.45410000000000	704.04345699999999	38.13757400000000	0.21769800000000	0.00000000000000	0.11233600000000	0.00000000000000	0.00000000000000	0.00000000000000	0.00000000000000	0.00000000000000	0.00000000000000	0.00000000000000	18.76680600000000	0.00000000000000	0.00000000000000	0.00000000000000	0.00000000000000	
11.74328800000000	-6.08396000000000	705.89560300000005	38.26175600000000	0.21657400000000	0.00000000000000	0.11230500000000	0.00000000000000	0.00000000000000	0.00000000000000	0.00000000000000	0.00000000000000	0.00000000000000	0.00000000000000	18.95365500000000	0.00000000000000	0.00000000000000	0.00000000000000	0.00000000000000	
11.74495600000000	-6.72276800000000	707.81643999999994	38.39267100000000	0.21543300000000	0.00000000000000	0.11227500000000	0.00000000000000	0.00000000000000	0.00000000000000	0.00000000000000	0.00000000000000	0.00000000000000	0.00000000000000	19.14376600000000	0.00000000000000	0.00000000000000	0.00000000000000	0.00000000000000	
11.74662500000000	-7.37006800000000	709.80594900000006	38.53047800000000	0.21427900000000	0.00000000000000	0.11224600000000	0.00000000000000	0.00000000000000	0.00000000000000	0.00000000000000	0.00000000000000	0.00000000000000	0.00000000000000	19.33704300000000	0.00000000000000	0.00000000000000	0.00000000000000	0.00000000000000	
11.74828600000000	-8.02538000000000	711.86400000000003	38.67534000000000	0.21311300000000	0.00000000000000	0.11221900000000	0.00000000000000	0.00000000000000	0.00000000000000	0.00000000000000	0.00000000000000	0.00000000000000	0.00000000000000	19.53338400000000	0.00000000000000	0.00000000000000	0.00000000000000	0.00000000000000	
11.74996100000000	-8.68820300000000	713.99035100000003	38.82742400000000	0.21193700000000	0.00000000000000	0.11219300000000	0.00000000000000	0.00000000000000	0.00000000000000	0.00000000000000	0.00000000000000	0.00000000000000	0.00000000000000	19.73268300000000	0.00000000000000	0.00000000000000	0.00000000000000	0.00000000000000	
11.75163400000000	-9.35801200000000	716.18462899999997	38.98690100000000	0.21075300000000	0.00000000000000	0.11216700000000	0.00000000000000	0.00000000000000	0.00000000000000	0.00000000000000	0.00000000000000	0.00000000000000	0.00000000000000	19.93482800000000	0.00000000000000	0.00000000000000	0.00000000000000	0.00000000000000	
11.75328800000000	-10.03426900000000	718.44633099999999	39.15394400000000	0.20956200000000	0.00000000000000	0.11214300000000	0.00000000000000	0.00000000000000	0.00000000000000	0.00000000000000	0.00000000000000	0.00000000000000	0.00000000000000	20.13970100000000	0.00000000000000	0.00000000000000	0.00000000000000	0.00000000000000	
11.75495300000000	-10.71641600000000	720.77480800000001	39.32873000000000	0.20836800000000	0.00000000000000	0.11212000000000	0.00000000000000	0.00000000000000	0.00000000000000	0.00000000000000	0.00000000000000	0.00000000000000	0.00000000000000	20.34717900000000	0.00000000000000	0.00000000000000	0.00000000000000	0.00000000000000	
11.75662000000000	-11.40388400000000	723.16925900000001	39.51143800000000	0.20717100000000	0.00000000000000	0.11209700000000	0.00000000000000	0.00000000000000	0.00000000000000	0.00000000000000	0.00000000000000	0.00000000000000	0.00000000000000	20.55713400000000	0.00000000000000	0.00000000000000	0.00000000000000	0.00000000000000	
